<svg xmlns="http://www.w3.org/2000/svg" xmlns:xlink="http://www.w3.org/1999/xlink" version="1.0" x="0" y="0" width="640" height="640" viewBox="0 0 64 64" preserveAspectRatio="xMidYMid meet" color-interpolation-filters="sRGB">
<g fill-opacity=".8">
<path d="M60.87 37.88v.25c-.12 6.15-4.5 11.1-9.9 11.1a8.87 8.87 0 0 1-3.51-.74L14.07 15.35a10.67 10.67 0 0 1-1.59-5.62A10.9 10.9 0 0 1 18.58 0h31a11.41 11.41 0 0 1 11.29 11.55z" fill="#d13bfc"></path>
<path d="M30.77 10.62c10.92 0 19.77 9.54 19.77 21.3s-8.85 21.29-19.77 21.29S11 43.68 11 31.92s8.84-21.3 19.77-21.3z" strokeWidth="1em" stroke="#02c0fa"></path>
<path d="M0 27.08v-.25c.12-6.15 4.51-11.09 9.9-11.09a8.82 8.82 0 0 1 3.51.73L46.8 49.62a10.63 10.63 0 0 1 1.59 5.61A10.92 10.92 0 0 1 42.3 65h-31A11.41 11.41 0 0 1 0 53.41z" strokeWidth="1em" stroke="#5c36ee"></path>
</g>
</svg>