<svg xmlns="http://www.w3.org/2000/svg" xmlns:xlink="http://www.w3.org/1999/xlink" version="1.0" x="0" y="0" width="2400" height="665.9988323111793" viewBox="45.78440505981445 90.53024322509765 248.43119750976564 68.93953643798828" preserveAspectRatio="xMidYMid meet" color-interpolation-filters="sRGB"><g><defs><linearGradient id="92" x1="0%" y1="0%" x2="100%" y2="0%"><stop offset="0%" stop-color="#fa71cd"></stop> <stop offset="100%" stop-color="#9b59b6"></stop></linearGradient><linearGradient id="93" x1="0%" y1="0%" x2="100%" y2="0%"><stop offset="0%" stop-color="#f9d423"></stop> <stop offset="100%" stop-color="#f83600"></stop></linearGradient><linearGradient id="94" x1="0%" y1="0%" x2="100%" y2="0%"><stop offset="0%" stop-color="#0064d2"></stop> <stop offset="100%" stop-color="#1cb0f6"></stop></linearGradient><linearGradient id="95" x1="0%" y1="0%" x2="100%" y2="0%"><stop offset="0%" stop-color="#f00978"></stop> <stop offset="100%" stop-color="#3f51b1"></stop></linearGradient><linearGradient id="96" x1="0%" y1="0%" x2="100%" y2="0%"><stop offset="0%" stop-color="#7873f5"></stop> <stop offset="100%" stop-color="#ec77ab"></stop></linearGradient><linearGradient id="97" x1="0%" y1="0%" x2="100%" y2="0%"><stop offset="0%" stop-color="#f9d423"></stop> <stop offset="100%" stop-color="#e14fad"></stop></linearGradient><linearGradient id="98" x1="0%" y1="0%" x2="100%" y2="0%"><stop offset="0%" stop-color="#009efd"></stop> <stop offset="100%" stop-color="#2af598"></stop></linearGradient><linearGradient id="99" x1="0%" y1="0%" x2="100%" y2="0%"><stop offset="0%" stop-color="#ffcc00"></stop> <stop offset="100%" stop-color="#00b140"></stop></linearGradient><linearGradient id="100" x1="0%" y1="0%" x2="100%" y2="0%"><stop offset="0%" stop-color="#d51007"></stop> <stop offset="100%" stop-color="#ff8177"></stop></linearGradient><linearGradient id="102" x1="0%" y1="0%" x2="100%" y2="0%"><stop offset="0%" stop-color="#a2b6df"></stop> <stop offset="100%" stop-color="#0c3483"></stop></linearGradient><linearGradient id="103" x1="0%" y1="0%" x2="100%" y2="0%"><stop offset="0%" stop-color="#7ac5d8"></stop> <stop offset="100%" stop-color="#eea2a2"></stop></linearGradient><linearGradient id="104" x1="0%" y1="0%" x2="100%" y2="0%"><stop offset="0%" stop-color="#00ecbc"></stop> <stop offset="100%" stop-color="#007adf"></stop></linearGradient><linearGradient id="105" x1="0%" y1="0%" x2="100%" y2="0%"><stop offset="0%" stop-color="#b88746"></stop> <stop offset="100%" stop-color="#fdf5a6"></stop></linearGradient></defs><g fill="#333" class="icon-text-wrapper icon-svg-group iconsvg" transform="translate(48.220001220703125,92.9658317565918)"><g class="iconsvg-imagesvg" transform="translate(0,0)"><g><rect fill="#333" fill-opacity="0" stroke-width="2" x="0" y="0" width="60.00000000000001" height="64.06833956219968" class="image-rect"></rect> <svg x="0" y="0" width="60.00000000000001" height="64.06833956219968" filtersec="colorsb4159920397" class="image-svg-svg primary" style="overflow: visible;"><svg xmlns="http://www.w3.org/2000/svg" viewBox="-0.0014283348573371768 0 60.87229537963867 65"><g fill-opacity=".8"><path d="M60.87 37.88v.25c-.12 6.15-4.5 11.1-9.9 11.1a8.87 8.87 0 0 1-3.51-.74L14.07 15.35a10.67 10.67 0 0 1-1.59-5.62A10.9 10.9 0 0 1 18.58 0h31a11.41 11.41 0 0 1 11.29 11.55z" fill="#d13bfc"></path><path d="M30.77 10.62c10.92 0 19.77 9.54 19.77 21.3s-8.85 21.29-19.77 21.29S11 43.68 11 31.92s8.84-21.3 19.77-21.3z" fill="#02c0fa"></path><path d="M0 27.08v-.25c.12-6.15 4.51-11.09 9.9-11.09a8.82 8.82 0 0 1 3.51.73L46.8 49.62a10.63 10.63 0 0 1 1.59 5.61A10.92 10.92 0 0 1 42.3 65h-31A11.41 11.41 0 0 1 0 53.41z" fill="#5c36ee"></path></g></svg></svg> </g></g> <g transform="translate(67,6.8011627197265625)"><g fill-rule="" class="tp-name iconsvg-namesvg" transform="translate(0,0)"><g transform="scale(1)"><g><path d="M1.8-17.84C1.8-5.77 9.48 0.42 20.22 0.42 25.36 0.42 30.12-1.06 33.35-3.34L31.66-9.64C29.12-7.73 25.15-6.19 20.91-6.19 13.98-6.19 9.48-10.54 9.48-17.84 9.48-24.99 13.98-29.33 19.75-29.33 21.65-29.33 23.45-29.22 25.09-28.96L25.73-20.17 32.88-20.17 32.88-33.72C29.01-35.05 25.36-35.89 19.91-35.89 9.53-35.89 1.8-29.75 1.8-17.84ZM49.98 0L49.98-6.09 46.75-6.09 48.28-10.59 60.94-10.59 62.47-6.09 59.29-6.09 59.29 0 73.43 0 73.43-6.09 69.94-6.09 59.51-35.47 49.76-35.47 39.28-6.09 35.84-6.09 35.84 0ZM54.64-29.12L59.19-15.72 50.03-15.72ZM73.8-17.84C73.8-5.77 81.48 0.42 92.22 0.42 97.36 0.42 102.12-1.06 105.35-3.34L103.66-9.64C101.12-7.73 97.15-6.19 92.91-6.19 85.98-6.19 81.48-10.54 81.48-17.84 81.48-24.99 85.98-29.33 91.75-29.33 93.65-29.33 95.45-29.22 97.09-28.96L97.73-20.17 104.88-20.17 104.88-33.72C101.01-35.05 97.36-35.89 91.91-35.89 81.53-35.89 73.8-29.75 73.8-17.84ZM108.79-35.47L108.79-29.22 112.24-29.22 112.24-6.25 108.79-6.25 108.79 0 123.25 0 123.25-6.25 119.81-6.25 119.81-15.09 134.79-15.09 134.79-6.25 131.35-6.25 131.35 0 145.85 0 145.85-6.25 142.36-6.25 142.36-29.22 145.85-29.22 145.85-35.47 131.35-35.47 131.35-29.22 134.79-29.22 134.79-20.44 119.81-20.44 119.81-29.22 123.25-29.22 123.25-35.47ZM149.08 0L178.36 0 178.36-11.59 172.85-11.59 172.38-6.25 160.09-6.25 160.09-15.14 170.26-15.14 170.26-20.12 160.09-20.12 160.09-29.22 172.38-29.22 172.85-23.88 178.36-23.88 178.36-35.47 149.08-35.47 149.08-29.22 152.52-29.22 152.52-6.25 149.08-6.25Z" transform="translate(-1.7999999523162842, 35.88999938964844)"></path></g> </g></g> <g fill-rule="" class="tp-slogan iconsvg-slogansvg" fill="#333" transform="translate(5,42.310001373291016)"><rect x="0" height="1" y="3.580000877380371" width="40.53999710083008"></rect> <rect height="1" y="3.580000877380371" width="40.53999710083008" x="126.02000045776367"></rect> <g transform="translate(43.53999710083008,0)"><g transform="scale(1)"><path d="M2.71-7.03L2.71 0L3.72 0L3.72-7.03L6.10-7.03L6.10-7.87L0.34-7.87L0.34-7.03ZM7.51-7.87L7.51 0L8.51 0L8.51-7.87ZM10.67-7.87L10.67 0L11.59 0L11.59-4.33C11.59-4.68 11.58-5.07 11.54-5.50C11.51-5.92 11.48-6.31 11.46-6.66L11.51-6.66L12.13-4.91L13.66-0.79L14.22-0.79L15.73-4.91L16.37-6.66L16.42-6.66C16.38-6.31 16.35-5.92 16.33-5.50C16.30-5.07 16.28-4.68 16.28-4.33L16.28 0L17.23 0L17.23-7.87L16.06-7.87L14.54-3.65L13.99-2.04L13.94-2.04L13.37-3.65L11.84-7.87ZM19.39-7.87L19.39 0L24.05 0L24.05-0.85L20.39-0.85L20.39-3.71L23.38-3.71L23.38-4.56L20.39-4.56L20.39-7.03L23.93-7.03L23.93-7.87ZM29.77-7.03L29.77 0L30.78 0L30.78-7.03L33.16-7.03L33.16-7.87L27.40-7.87L27.40-7.03ZM35.57-4.14L35.57-7.07L36.89-7.07C37.50-7.07 37.98-6.96 38.30-6.76C38.63-6.55 38.80-6.18 38.80-5.66C38.80-5.15 38.63-4.77 38.30-4.52C37.98-4.27 37.50-4.14 36.89-4.14ZM38.89 0L40.02 0L38.03-3.43C38.56-3.57 38.99-3.82 39.31-4.19C39.63-4.56 39.79-5.05 39.79-5.66C39.79-6.07 39.72-6.42 39.59-6.70C39.45-6.98 39.26-7.20 39.02-7.38C38.77-7.56 38.48-7.68 38.14-7.76C37.80-7.83 37.43-7.87 37.03-7.87L34.57-7.87L34.57 0L35.57 0L35.57-3.32L37.00-3.32ZM44.77-3.20L42.41-3.20L42.78-4.40C42.92-4.84 43.06-5.28 43.19-5.72C43.32-6.15 43.44-6.60 43.56-7.06L43.61-7.06C43.74-6.60 43.86-6.15 43.99-5.72C44.12-5.28 44.26-4.84 44.40-4.40ZM45.02-2.40L45.77 0L46.84 0L44.17-7.87L43.04-7.87L40.38 0L41.40 0L42.16-2.40ZM47.95-7.87L47.95 0L48.90 0L48.90-4.12C48.90-4.53 48.89-4.95 48.86-5.36C48.83-5.77 48.80-6.18 48.77-6.58L48.82-6.58L49.67-4.96L52.52 0L53.56 0L53.56-7.87L52.61-7.87L52.61-3.80C52.61-3.39 52.62-2.97 52.65-2.54C52.68-2.11 52.70-1.70 52.73-1.30L52.68-1.30L51.83-2.93L48.98-7.87ZM55.74-1.72L55.14-1.02C55.48-0.66 55.89-0.38 56.36-0.17C56.84 0.04 57.35 0.14 57.90 0.14C58.32 0.14 58.69 0.09 59.02-0.03C59.34-0.15 59.62-0.31 59.86-0.51C60.09-0.71 60.27-0.95 60.39-1.22C60.51-1.50 60.58-1.79 60.58-2.10C60.58-2.39 60.53-2.64 60.45-2.86C60.37-3.08 60.25-3.27 60.11-3.44C59.96-3.60 59.79-3.75 59.59-3.87C59.39-3.99 59.18-4.10 58.96-4.20L57.84-4.68C57.68-4.74 57.52-4.81 57.37-4.89C57.22-4.97 57.08-5.05 56.95-5.15C56.82-5.25 56.72-5.37 56.65-5.50C56.57-5.63 56.53-5.80 56.53-5.99C56.53-6.35 56.67-6.63 56.93-6.83C57.20-7.04 57.56-7.14 58.00-7.14C58.36-7.14 58.69-7.07 58.99-6.94C59.28-6.81 59.54-6.63 59.78-6.40L60.32-7.04C60.04-7.33 59.70-7.57 59.30-7.75C58.90-7.93 58.47-8.02 58.00-8.02C57.64-8.02 57.31-7.96 57.01-7.86C56.71-7.76 56.45-7.61 56.23-7.42C56.01-7.23 55.83-7.01 55.71-6.76C55.59-6.50 55.52-6.22 55.52-5.93C55.52-5.64 55.57-5.39 55.67-5.17C55.76-4.95 55.89-4.76 56.04-4.60C56.19-4.44 56.36-4.30 56.56-4.19C56.75-4.08 56.94-3.98 57.12-3.90L58.25-3.41C58.43-3.32 58.60-3.24 58.76-3.16C58.92-3.08 59.06-2.99 59.18-2.89C59.29-2.79 59.39-2.67 59.45-2.53C59.52-2.39 59.56-2.22 59.56-2.02C59.56-1.63 59.41-1.32 59.12-1.09C58.84-0.85 58.43-0.73 57.91-0.73C57.50-0.73 57.11-0.82 56.73-1.00C56.35-1.18 56.02-1.42 55.74-1.72ZM62.12-7.87L62.12 0L63.12 0L63.12-3.53L66.12-3.53L66.12-4.37L63.12-4.37L63.12-7.03L66.66-7.03L66.66-7.87ZM68.05-7.87L68.05 0L72.71 0L72.71-0.85L69.05-0.85L69.05-3.71L72.04-3.71L72.04-4.56L69.05-4.56L69.05-7.03L72.59-7.03L72.59-7.87ZM75.37-4.14L75.37-7.07L76.69-7.07C77.31-7.07 77.78-6.96 78.11-6.76C78.44-6.55 78.60-6.18 78.60-5.66C78.60-5.15 78.44-4.77 78.11-4.52C77.78-4.27 77.31-4.14 76.69-4.14ZM78.70 0L79.82 0L77.83-3.43C78.37-3.57 78.80-3.82 79.12-4.19C79.44-4.56 79.60-5.05 79.60-5.66C79.60-6.07 79.53-6.42 79.39-6.70C79.26-6.98 79.07-7.20 78.82-7.38C78.58-7.56 78.29-7.68 77.95-7.76C77.61-7.83 77.24-7.87 76.84-7.87L74.38-7.87L74.38 0L75.37 0L75.37-3.32L76.80-3.32Z" transform="translate(-0.336, 8.016)"></path></g></g></g></g></g><defs v-gra="od"></defs></g></svg>